<?xml version="1.0" encoding="UTF-8"?>
<!DOCTYPE svg PUBLIC "-//W3C//DTD SVG 1.1//EN" "http://www.w3.org/Graphics/SVG/1.1/DTD/svg11.dtd">
<!-- Creator: CorelDRAW 2018 (64-Bit Evaluation Version) -->
<svg xmlns="http://www.w3.org/2000/svg" xml:space="preserve" width="6.1482in" height="6.79631in" version="1.1" style="shape-rendering:geometricPrecision; text-rendering:geometricPrecision; image-rendering:optimizeQuality; fill-rule:evenodd; clip-rule:evenodd" viewBox="0 0 6148.2 6796.31" xmlns:xlink="http://www.w3.org/1999/xlink">
    <g id="Layer_x0020_1" style="stroke:none;stroke-opacity:1;fill-rule:evenodd;fill-opacity:1">
        <metadata id="CorelCorpID_0Corel-Layer"/>
        <g id="_1929149881376">
            <path d="M3074.1 -0.01c1697.8,0 3074.11,1376.31 3074.11,3074.11 0,1457.6 -1014.4,2678.16 -2375.77,2994.39l-678.09 727.83 -707.06 -725.2c-1367.14,-312.02 -2387.3,-1535.32 -2387.3,-2997.02 0,-1697.8 1376.31,-3074.11 3074.11,-3074.11z" style="fill:#ED3237;"/>
            <g>
                <path d="M3170.03 2635.27c-131.2,301.47 -271.94,84.9 -290.06,176.36l-46.2 232.56c-60,302.3 -90.94,702.11 -241.26,874.77 -253.13,290.84 -655.6,96.15 -723.26,-1138.22 -212.87,81.62 -265.32,33.59 -340.27,-149.02 1054.1,-1476.82 585.59,-1488.91 1641.05,3.54z" style="fill:#FEFEFE;"/>
                <path d="M2978.15 4161.11c131.2,-301.47 271.94,-84.9 290.06,-176.36l46.2 -232.56c60,-302.3 90.94,-702.11 241.26,-874.77 253.13,-290.84 655.59,-96.15 723.26,1138.22 212.87,-81.62 265.32,-33.59 340.27,149.02 -1054.1,1476.82 -585.59,1488.91 -1641.05,-3.54z" style="fill:#FEFEFE;"/>
            </g>
        </g>
    </g>
</svg>
